<svg xmlns="http://www.w3.org/2000/svg" viewBox="0 0 80 80" width="80" height="80" fill="none">
  <defs>
    <linearGradient id="bowlGrad" x1="0%" y1="0%" x2="100%" y2="100%">
      <stop offset="0%" stop-color="#ff9d3b"/>
      <stop offset="100%" stop-color="#ff7b00"/>
    </linearGradient>
  </defs>
  <!-- Background Circle -->
  <circle cx="40" cy="40" r="38" fill="#fff3e5" />
  <!-- Bowl Base -->
  <path d="M16 54 L64 54 C60 42, 20 42, 16 54 Z" fill="url(#bowlGrad)" />
  <ellipse cx="40" cy="42" rx="24" ry="5" fill="#e06d00" />
  <!-- Kibbles (Ração) -->
  <circle cx="34" cy="38" r="3" fill="#8d6e63" />
  <circle cx="40" cy="36" r="3" fill="#705349" />
  <circle cx="46" cy="38" r="3" fill="#8d6e63" />
  <circle cx="31" cy="40" r="2.5" fill="#5d4037" />
  <circle cx="49" cy="40" r="2.5" fill="#5d4037" />
  <circle cx="37" cy="39" r="3" fill="#5d4037" />
  <circle cx="43" cy="39" r="3" fill="#705349" />
  <!-- Bone Detail on Bowl -->
  <rect x="34" y="47" width="12" height="4" rx="2" fill="#fff" />
  <circle cx="34" cy="48" r="2.5" fill="#fff" />
  <circle cx="34" cy="50" r="2.5" fill="#fff" />
  <circle cx="46" cy="48" r="2.5" fill="#fff" />
  <circle cx="46" cy="50" r="2.5" fill="#fff" />
</svg>
